<svg xmlns="http://www.w3.org/2000/svg" xmlns:xlink="http://www.w3.org/1999/xlink" width="300" zoomAndPan="magnify" viewBox="0 0 224.87999 74.999997" height="100" preserveAspectRatio="xMidYMid meet" version="1.0"><defs><g/><clipPath id="5e599a9016"><path d="M 6 5 L 61 5 L 61 65 L 6 65 Z M 6 5 " clip-rule="nonzero"/></clipPath><clipPath id="920d3c1a4a"><path d="M 7.964844 4.382812 L 61.898438 6.460938 L 59.648438 64.886719 L 5.714844 62.808594 Z M 7.964844 4.382812 " clip-rule="nonzero"/></clipPath><clipPath id="71abb547a5"><path d="M 7.964844 4.382812 L 61.898438 6.460938 L 59.648438 64.886719 L 5.714844 62.808594 Z M 7.964844 4.382812 " clip-rule="nonzero"/></clipPath><clipPath id="8cecfd127e"><path d="M 7.976562 4.386719 L 62.054688 6.46875 L 59.800781 64.953125 L 5.722656 62.871094 Z M 7.976562 4.386719 " clip-rule="nonzero"/></clipPath><clipPath id="7ba904bc00"><path d="M 105.449219 28.695312 L 123.257812 28.695312 L 123.257812 46.503906 L 105.449219 46.503906 Z M 105.449219 28.695312 " clip-rule="nonzero"/></clipPath><clipPath id="dfeaf96b8a"><path d="M 114.355469 28.695312 C 109.4375 28.695312 105.449219 32.683594 105.449219 37.601562 C 105.449219 42.515625 109.4375 46.503906 114.355469 46.503906 C 119.269531 46.503906 123.257812 42.515625 123.257812 37.601562 C 123.257812 32.683594 119.269531 28.695312 114.355469 28.695312 Z M 114.355469 28.695312 " clip-rule="nonzero"/></clipPath><clipPath id="e2b2b24baa"><path d="M 106 31 L 121.941406 31 L 121.941406 45.136719 L 106 45.136719 Z M 106 31 " clip-rule="nonzero"/></clipPath></defs><g clip-path="url(#5e599a9016)"><g clip-path="url(#920d3c1a4a)"><g clip-path="url(#71abb547a5)"><g clip-path="url(#8cecfd127e)"><path fill="#db2777" d="M 41.964844 39.242188 C 41.398438 41.839844 40.660156 46.058594 41.148438 49.984375 C 41.480469 52.609375 42.335938 55.199219 45.027344 56.253906 C 45.167969 56.261719 46.117188 56.316406 46.820312 56.179688 C 49.59375 55.644531 52.640625 52.976562 52.28125 45.65625 L 60.4375 45.253906 C 60.8125 52.894531 58.542969 57.484375 55.800781 60.265625 C 51.042969 65.089844 44.304688 64.703125 42.265625 63.941406 C 36.367188 61.742188 33.753906 56.660156 33.046875 51 C 32.734375 48.496094 32.820312 45.882812 33.066406 43.539062 C 27.074219 44.996094 22.878906 42.816406 20.914062 39.964844 C 18.019531 35.769531 18.691406 28.328125 25.847656 23.28125 C 29.246094 20.886719 35.582031 20.078125 39.488281 23.902344 C 40.261719 24.660156 40.980469 25.632812 41.546875 26.867188 C 42.351562 24.476562 42.195312 21.984375 41.21875 19.792969 C 39.25 15.359375 34.132812 12.394531 27.644531 13.882812 C 19.300781 15.792969 15.890625 21.949219 15.222656 29.492188 C 14.441406 38.273438 17.09375 48.777344 20.769531 57.953125 L 13.1875 60.992188 C 9.03125 50.613281 6.207031 38.703125 7.085938 28.769531 C 8.078125 17.601562 13.460938 8.75 25.824219 5.921875 C 36.855469 3.394531 45.328125 8.9375 48.679688 16.472656 C 51.894531 23.699219 50.574219 32.976562 41.964844 39.242188 Z M 34.59375 34.234375 C 34.804688 32 34.605469 30.550781 33.773438 29.738281 C 32.847656 28.832031 31.355469 29.394531 30.550781 29.960938 C 29.007812 31.046875 27.996094 32.304688 27.59375 33.574219 C 27.390625 34.226562 27.3125 34.859375 27.632812 35.328125 C 27.945312 35.777344 28.574219 35.882812 29.339844 35.878906 C 30.792969 35.875 32.542969 35.339844 34.59375 34.234375 Z M 34.59375 34.234375 " fill-opacity="1" fill-rule="evenodd"/></g></g></g></g><g fill="#db2777" fill-opacity="1"><g transform="translate(49.873892, 50.985189)"><g><path d="M 1.390625 -27.90625 L 22.078125 -27.90625 L 22.078125 -19.953125 L 10.859375 -19.953125 L 10.859375 -17.53125 L 18.796875 -17.53125 L 18.796875 -10.375 L 10.859375 -10.375 L 10.859375 -7.9375 L 22.078125 -7.9375 L 22.078125 0 L 1.390625 0 Z M 1.390625 -27.90625 "/></g></g></g><g fill="#db2777" fill-opacity="1"><g transform="translate(74.822642, 50.985189)"><g><path d="M 1.390625 -27.90625 L 10.859375 -27.90625 L 10.859375 -7.9375 L 21.28125 -7.9375 L 21.28125 0 L 1.390625 0 Z M 1.390625 -27.90625 "/></g></g></g><g fill="#db2777" fill-opacity="1"><g transform="translate(98.174711, 50.985189)"><g><path d="M 15.765625 0.59375 C 12.921875 0.59375 10.347656 -0.015625 8.046875 -1.234375 C 5.742188 -2.460938 3.925781 -4.171875 2.59375 -6.359375 C 1.257812 -8.554688 0.59375 -11.082031 0.59375 -13.9375 C 0.59375 -16.78125 1.257812 -19.304688 2.59375 -21.515625 C 3.925781 -23.722656 5.742188 -25.4375 8.046875 -26.65625 C 10.347656 -27.882812 12.921875 -28.5 15.765625 -28.5 C 18.585938 -28.5 21.148438 -27.882812 23.453125 -26.65625 C 25.753906 -25.4375 27.570312 -23.722656 28.90625 -21.515625 C 30.238281 -19.304688 30.90625 -16.78125 30.90625 -13.9375 C 30.90625 -11.082031 30.238281 -8.554688 28.90625 -6.359375 C 27.570312 -4.171875 25.753906 -2.460938 23.453125 -1.234375 C 21.148438 -0.015625 18.585938 0.59375 15.765625 0.59375 Z M 15.765625 -8.296875 C 17.367188 -8.296875 18.6875 -8.800781 19.71875 -9.8125 C 20.757812 -10.832031 21.28125 -12.207031 21.28125 -13.9375 C 21.28125 -15.664062 20.757812 -17.035156 19.71875 -18.046875 C 18.6875 -19.054688 17.367188 -19.5625 15.765625 -19.5625 C 14.140625 -19.5625 12.804688 -19.054688 11.765625 -18.046875 C 10.734375 -17.035156 10.21875 -15.664062 10.21875 -13.9375 C 10.21875 -12.207031 10.742188 -10.832031 11.796875 -9.8125 C 12.847656 -8.800781 14.171875 -8.296875 15.765625 -8.296875 Z M 15.765625 -8.296875 "/></g></g></g><g fill="#db2777" fill-opacity="1"><g transform="translate(131.945124, 50.985189)"><g><path d="M 0.59375 -27.90625 L 10.5 -27.90625 L 16.25 -12.25 L 22 -27.90625 L 31.890625 -27.90625 L 20.71875 0 L 11.78125 0 Z M 0.59375 -27.90625 "/></g></g></g><g fill="#db2777" fill-opacity="1"><g transform="translate(166.713467, 50.985189)"><g><path d="M 1.390625 -27.90625 L 22.078125 -27.90625 L 22.078125 -19.953125 L 10.859375 -19.953125 L 10.859375 -17.53125 L 18.796875 -17.53125 L 18.796875 -10.375 L 10.859375 -10.375 L 10.859375 -7.9375 L 22.078125 -7.9375 L 22.078125 0 L 1.390625 0 Z M 1.390625 -27.90625 "/></g></g></g><g fill="#db2777" fill-opacity="1"><g transform="translate(191.662216, 50.985189)"><g><path d="M 1.390625 -27.90625 L 12.09375 -27.90625 C 15.1875 -27.90625 17.894531 -27.34375 20.21875 -26.21875 C 22.550781 -25.101562 24.351562 -23.507812 25.625 -21.4375 C 26.90625 -19.363281 27.546875 -16.914062 27.546875 -14.09375 C 27.546875 -9.457031 26.164062 -5.945312 23.40625 -3.5625 C 20.65625 -1.1875 16.882812 0 12.09375 0 L 1.390625 0 Z M 12.734375 -8.78125 C 16.191406 -8.78125 17.921875 -10.550781 17.921875 -14.09375 C 17.921875 -15.71875 17.46875 -16.960938 16.5625 -17.828125 C 15.65625 -18.691406 14.378906 -19.125 12.734375 -19.125 L 10.859375 -19.125 L 10.859375 -8.78125 Z M 12.734375 -8.78125 "/></g></g></g><g clip-path="url(#7ba904bc00)"><g clip-path="url(#dfeaf96b8a)"><path fill="#db2777" d="M 105.449219 28.695312 L 123.257812 28.695312 L 123.257812 46.503906 L 105.449219 46.503906 Z M 105.449219 28.695312 " fill-opacity="1" fill-rule="nonzero"/></g></g><g clip-path="url(#e2b2b24baa)"><path fill="#ffcee5" d="M 121.421875 34.667969 C 120.558594 30.238281 115.160156 30.164062 113.828125 34.304688 C 112.496094 30.164062 107.097656 30.238281 106.234375 34.667969 C 105.453125 38.6875 113.828125 45.03125 113.828125 45.03125 C 113.828125 45.03125 122.203125 38.6875 121.421875 34.667969 Z M 121.421875 34.667969 " fill-opacity="1" fill-rule="nonzero"/></g><g fill="#db2777" fill-opacity="1"><g transform="translate(181.725972, 67.082787)"><g><path d="M 3.109375 -9.484375 L 3.109375 -3.8125 C 3.109375 -3.238281 3.242188 -2.796875 3.515625 -2.484375 C 3.796875 -2.179688 4.207031 -2.03125 4.75 -2.03125 C 5.289062 -2.03125 5.703125 -2.179688 5.984375 -2.484375 C 6.273438 -2.796875 6.421875 -3.238281 6.421875 -3.8125 L 6.421875 -9.484375 L 8.734375 -9.484375 L 8.734375 -3.828125 C 8.734375 -2.972656 8.550781 -2.253906 8.1875 -1.671875 C 7.832031 -1.085938 7.347656 -0.644531 6.734375 -0.34375 C 6.128906 -0.0507812 5.457031 0.09375 4.71875 0.09375 C 3.96875 0.09375 3.296875 -0.0507812 2.703125 -0.34375 C 2.117188 -0.632812 1.65625 -1.070312 1.3125 -1.65625 C 0.96875 -2.25 0.796875 -2.972656 0.796875 -3.828125 L 0.796875 -9.484375 Z M 3.109375 -9.484375 "/></g></g></g><g fill="#db2777" fill-opacity="1"><g transform="translate(191.238886, 67.082787)"><g><path d="M 6.328125 0 L 3.140625 -4.1875 L 3.140625 0 L 0.84375 0 L 0.84375 -9.484375 L 3.140625 -9.484375 L 3.140625 -5.3125 L 6.296875 -9.484375 L 9.015625 -9.484375 L 5.34375 -4.828125 L 9.15625 0 Z M 6.328125 0 "/></g></g></g><g fill="#db2777" fill-opacity="1"><g transform="translate(200.643861, 67.082787)"><g><path d="M 11.5625 -9.484375 L 11.5625 0 L 9.265625 0 L 9.265625 -5.6875 L 7.140625 0 L 5.28125 0 L 3.140625 -5.703125 L 3.140625 0 L 0.84375 0 L 0.84375 -9.484375 L 3.5625 -9.484375 L 6.21875 -2.921875 L 8.859375 -9.484375 Z M 11.5625 -9.484375 "/></g></g></g></svg>